<?xml version="1.0" encoding="utf-8"?>
<!-- Generator: Adobe Illustrator 22.0.1, SVG Export Plug-In . SVG Version: 6.00 Build 0)  -->
<svg version="1.1" id="Layer_1" xmlns="http://www.w3.org/2000/svg" xmlns:xlink="http://www.w3.org/1999/xlink" x="0px" y="0px"
	 viewBox="0 0 600 600" style="enable-background:new 0 0 600 600;" xml:space="preserve">
<style type="text/css">
	.st0{fill:#DADA29;}
	.st1{fill:#F15A29;}
	.st2{fill:#6B6A6B;}
	.st3{fill:#F1F2F2;}
</style>
<path class="st0" d="M263.2,377.9c26.2,27.4,59.3,43.8,93.3,59.7c-3.5,1.1-7,2.6-10.5,3.4c-60,13.5-109.7-3.1-148.6-51
	c-13.8-17-22.1-36.7-26.3-58.2c-0.8-4.1-2.6-6.6-6.1-8.8c-30.5-19.6-59.9-40.7-85.7-66.3c-11.9-11.9-23-24.5-30.2-39.9
	c-4.4-9.3-7.4-19-2.5-29.3c4.3-8.9,12.2-13.1,21-15.9c13.1-4.2,26.7-4.9,40.3-3.9c16.5,1.3,33.1,2.9,49.3,6.2
	c21.6,4.4,42.9,10.3,64.2,15.8c3,0.8,5.1,0.4,7.7-1.4c28.2-18.8,59.1-27.7,93.2-24.3c47.8,4.7,83.9,28.1,109,68.8
	c11,17.9,17.2,37.7,18.9,58.7c0.4,4.8,2.3,7.3,6.1,9.8c27.7,18.6,54.9,37.9,78.6,61.6c11.8,11.8,22.8,24.3,30,39.4
	c2.3,4.9,4.1,10.2,4.8,15.6c1.8,12.6-4.4,22.4-17.2,28c-13.1,5.7-27,6.4-41,6.2c-21-0.3-41.7-3.1-62.1-7.7
	c-34.7-7.8-69-17.6-102-30.9c-27.4-11.1-54.4-23-81.5-34.6C264.8,378.5,264,378.2,263.2,377.9z M168.3,292.2
	c0.4-2.2,0.7-3.5,0.9-4.8c4.3-30.3,16.2-57,37.3-79.4c4.6-4.9,4.5-5.3-2.1-7.1c-0.5-0.1-12-2.9-12.6-3c-17.2-2.2-19.6-4.4-41.1-4.4
	c-12.2-0.9-24,0.5-35.1,6.9c-7.4,4.3-11.5,10.7-9.6,19.3c1.3,5.8,3.4,11.7,6.4,16.7C126.3,259.3,146.9,275.5,168.3,292.2z
	 M410,404.6c0.6,0.4,1.1,0.8,1.5,0.9c18.7,5.4,37.9,8.2,57.3,8.3c10.2,0.1,20.6-1.7,30.5-4.3c10.4-2.8,15.7-10.8,14.2-20.2
	c-1.1-6.5-3.5-13.2-7-18.8c-13.4-21.7-33.1-37.3-52.8-52.8c-4.6-3.6-3.9,1.4-4.1,3.3c-2.4,24.2-11.2,45.9-25.2,65.6
	C420,392.8,414.9,398.5,410,404.6z"/>
<path class="st1" d="M114.7,338.9c-2.7,13.4-14.2,21-27.7,18.3c-12.5-2.5-21-15.3-18.4-27.5c2.7-12.6,15.9-21.2,28.2-18.5
	C109.5,314,117.3,326.1,114.7,338.9z"/>
<path class="st1" d="M490.6,287.9c-8-1.5-13-8.8-11.4-16.6c1.5-7.9,8.8-12.9,16.8-11.5c7.5,1.3,13,9.4,11.6,16.9
	C506,284.3,498.4,289.4,490.6,287.9z"/>
<path class="st1" d="M404.6,479.7c-8-1.5-13-8.8-11.4-16.6c1.5-7.9,8.8-12.9,16.8-11.5c7.5,1.3,13,9.4,11.6,16.9
	C420.1,476.1,412.5,481.2,404.6,479.7z"/>
<path class="st1" d="M132.3,386.3c-5.1-1.2-7.9-6-6.6-11.2c1.2-4.9,6-7.9,10.6-6.8c5,1.2,7.9,6.1,6.6,11.2
	C141.7,384.4,137,387.4,132.3,386.3z"/>
<path class="st2" d="M255.3,369c26.2,27.4,59.3,43.8,93.3,59.7c-3.5,1.1-7,2.6-10.5,3.4c-60,13.5-109.7-3.1-148.6-51
	c-13.8-17-22.1-36.7-26.3-58.2c-0.8-4.1-2.6-6.6-6.1-8.8c-30.5-19.6-59.9-40.7-85.7-66.3c-11.9-11.9-23-24.5-30.2-39.9
	c-4.4-9.3-7.4-19-2.5-29.3c4.3-8.9,12.2-13.1,21-15.9c13.1-4.2,26.7-4.9,40.3-3.9c16.5,1.3,33.1,2.9,49.3,6.2
	c21.6,4.4,42.9,10.3,64.2,15.8c3,0.8,5.1,0.4,7.7-1.4c28.2-18.8,59.1-27.7,93.2-24.3c47.8,4.7,83.9,28.1,109,68.8
	c11,17.9,17.2,37.7,18.9,58.7c0.4,4.8,2.3,7.3,6.1,9.8c27.7,18.6,54.9,37.9,78.6,61.6c11.8,11.8,22.8,24.3,30,39.4
	c2.3,4.9,4.1,10.2,4.8,15.6c1.8,12.6-4.4,22.4-17.2,28c-13.1,5.7-27,6.4-41,6.2c-21-0.3-41.7-3.1-62.1-7.7
	c-34.7-7.8-69-17.6-102-30.9c-27.4-11.1-54.4-23-81.5-34.6C257,369.5,256.2,369.3,255.3,369z M160.4,283.3c0.4-2.2,0.7-3.5,0.9-4.8
	c4.3-30.3,16.2-57,37.3-79.4c4.6-4.9,4.5-5.3-2.1-7.1c-0.5-0.1-12-2.9-12.6-3c-17.2-2.2-19.6-4.4-41.1-4.4
	c-12.2-0.9-24,0.5-35.1,6.9c-7.4,4.3-11.5,10.7-9.6,19.3c1.3,5.8,3.4,11.7,6.4,16.7C118.5,250.4,139.1,266.6,160.4,283.3z
	 M402.2,395.7c0.6,0.4,1.1,0.8,1.5,0.9c18.7,5.4,37.9,8.2,57.3,8.3c10.2,0.1,20.6-1.7,30.5-4.3c10.4-2.8,15.7-10.8,14.2-20.2
	c-1.1-6.5-3.5-13.2-7-18.8c-13.4-21.7-33.1-37.3-52.8-52.8c-4.6-3.6-3.9,1.4-4.1,3.3c-2.4,24.2-11.2,45.9-25.2,65.6
	C412.2,383.8,407.1,389.6,402.2,395.7z"/>
<path class="st2" d="M111.3,335.5c-2.7,13.4-14.2,21-27.7,18.3c-12.5-2.5-21-15.3-18.4-27.5c2.7-12.6,15.9-21.2,28.2-18.5
	C106.1,310.6,113.9,322.7,111.3,335.5z"/>
<path class="st2" d="M486.5,283c-8-1.5-13-8.8-11.4-16.6c1.5-7.9,8.8-12.9,16.8-11.5c7.5,1.3,13,9.4,11.6,16.9
	C501.9,279.4,494.3,284.5,486.5,283z"/>
<path class="st2" d="M402,474.5c-8-1.5-13-8.8-11.4-16.6c1.5-7.9,8.8-12.9,16.8-11.5c7.5,1.3,13,9.4,11.6,16.9
	C417.5,470.9,409.8,476,402,474.5z"/>
<path class="st2" d="M128.9,382.9c-5.1-1.2-7.9-6-6.6-11.2c1.2-4.9,6-7.9,10.6-6.8c5,1.2,7.9,6.1,6.6,11.2
	C138.4,381.1,133.7,384,128.9,382.9z"/>
<g>
	<path class="st3" d="M223.1,263l11.1,0.3l-0.1,4.8c3.3-3.7,7.2-5.5,11.6-5.4c5.5,0.1,9.1,2.6,10.8,7.3c1.7,4.7,2.5,9.9,2.4,15.6
		l-0.3,14.6c-0.2,7.4-1.4,13.3-3.8,17.8c-2.4,4.5-6.3,6.7-11.8,6.5c-3.5-0.1-6.9-1.9-10.1-5.5l-0.6,24.2l-11.1-0.3L223.1,263z
		 M246,311.9c0.8-2.6,1.2-6.6,1.4-12l0.3-14.6c0.1-4.4-0.2-7.9-1-10.3c-0.8-2.4-2.5-3.6-5.1-3.7c-2.6-0.1-5.1,0.9-7.7,2.9l-0.9,38.5
		c2.4,1.9,5,2.8,7.9,2.9C243.6,315.7,245.3,314.4,246,311.9z"/>
	<path class="st3" d="M270.2,264.1l11.1,0.3l-1.4,60.1l-11.1-0.3L270.2,264.1z M270.7,243.5l11.1,0.3l-0.3,11.7l-11.1-0.3
		L270.7,243.5z"/>
	<path class="st3" d="M289.8,317.2l19.4-43.9l-16.5-0.4l0.2-8.3l28.5,0.7l-0.1,6l-19.6,45.2l18.1,0.4l-0.2,8.4l-30-0.7L289.8,317.2z
		"/>
	<path class="st3" d="M325.9,318l19.4-43.9l-16.5-0.4l0.2-8.3l28.5,0.7l-0.1,6l-19.6,45.2l18.1,0.4l-0.2,8.4l-30-0.7L325.9,318z"/>
	<path class="st3" d="M368.8,325.4c-1.8-1.4-3.2-3.1-4.2-5.3c-1-2.2-1.5-4.4-1.4-6.8c0.1-4.7,1.2-8.5,3.3-11.4
		c2.1-2.9,4.7-5.2,7.9-6.8c3.2-1.7,7.5-3.5,13.1-5.6l0.1-4.3c0.1-4-0.2-6.8-1-8.4c-0.8-1.6-2.4-2.5-4.8-2.6
		c-4.2-0.1-6.4,2.7-6.5,8.4l-0.1,3l-11-0.7c0.3-6.7,1.9-11.5,4.9-14.6c3-3.1,7.5-4.6,13.6-4.4c5.8,0.1,9.9,1.8,12.4,5
		c2.5,3.2,3.7,8,3.6,14.4l-0.6,27.5c-0.1,4.5,0.1,9.3,0.7,14.5l-10.2-0.2c-0.7-4-1.1-6.9-1.3-8.9c-0.9,2.7-2.4,4.9-4.5,6.8
		c-2.1,1.8-4.7,2.7-7.9,2.6C372.6,327.4,370.6,326.7,368.8,325.4z M383.8,316.4c1.4-1.1,2.4-2.2,3.1-3.2l0.4-17.1
		c-3,1.6-5.4,3-7,4.2c-1.7,1.2-3,2.5-4.2,4.1s-1.7,3.5-1.7,5.7c-0.1,2.5,0.3,4.4,1.2,5.8c0.9,1.4,2.2,2.1,3.9,2.1
		C380.9,318,382.4,317.5,383.8,316.4z"/>
</g>
<g>
	<path class="st3" d="M221.5,217.4h4v1.7c1.2-1.4,2.6-2,4.2-2c2,0,3.3,0.9,4,2.6c0.7,1.7,1,3.6,1,5.7v5.3c0,2.7-0.4,4.8-1.2,6.5
		c-0.8,1.7-2.2,2.5-4.2,2.5c-1.3,0-2.5-0.6-3.7-1.9v8.8h-4V217.4z M230.3,234.9c0.3-0.9,0.4-2.4,0.4-4.4v-5.3c0-1.6-0.2-2.9-0.5-3.7
		c-0.3-0.9-0.9-1.3-1.9-1.3c-0.9,0-1.9,0.4-2.8,1.1v14c0.9,0.7,1.9,1,2.9,1C229.4,236.3,230,235.9,230.3,234.9z"/>
	<path class="st3" d="M238.8,208.6h4v30.6h-4V208.6z"/>
	<path class="st3" d="M248.7,238.8c-0.7-0.5-1.2-1.1-1.6-1.9s-0.6-1.6-0.6-2.5c0-1.7,0.4-3.1,1.1-4.2c0.7-1.1,1.7-1.9,2.8-2.6
		c1.1-0.6,2.7-1.3,4.7-2.2V224c0-1.4-0.1-2.5-0.4-3c-0.3-0.6-0.9-0.9-1.8-0.9c-1.5,0-2.3,1-2.3,3.1v1.1l-4-0.2
		c0.1-2.4,0.6-4.2,1.7-5.3c1.1-1.1,2.7-1.7,4.9-1.7c2.1,0,3.6,0.6,4.6,1.7c0.9,1.1,1.4,2.9,1.4,5.2v10c0,1.6,0.1,3.4,0.4,5.3h-3.7
		c-0.3-1.4-0.5-2.5-0.5-3.2c-0.3,1-0.8,1.8-1.6,2.5c-0.7,0.7-1.7,1-2.9,1C250.2,239.5,249.4,239.3,248.7,238.8z M254.1,235.4
		c0.5-0.4,0.9-0.8,1.1-1.2V228c-1.1,0.6-1.9,1.1-2.5,1.6c-0.6,0.4-1.1,1-1.5,1.5c-0.4,0.6-0.6,1.3-0.6,2.1c0,0.9,0.2,1.6,0.5,2.1
		c0.3,0.5,0.8,0.7,1.4,0.7C253.1,236,253.6,235.8,254.1,235.4z"/>
	<path class="st3" d="M263.2,217.4h4v2.2c1.7-1.6,3.5-2.5,5.3-2.5c1.2,0,2,0.4,2.5,1.3c0.5,0.9,0.8,1.9,0.8,3.2v17.7h-4v-16.5
		c0-0.8-0.1-1.4-0.4-1.9c-0.3-0.4-0.7-0.6-1.4-0.6c-0.8,0-1.8,0.5-2.8,1.4v17.6h-4V217.4z"/>
	<path class="st3" d="M281.9,238.6c-0.9-0.6-1.6-1.6-2-2.9c-0.4-1.3-0.6-2.9-0.6-4.9v-5c0-3,0.5-5.2,1.4-6.6c0.9-1.4,2.6-2.1,5-2.1
		c1.8,0,3.1,0.4,4,1.1c0.9,0.7,1.5,1.8,1.8,3.1c0.3,1.3,0.4,3.1,0.4,5.3v1.8h-8.6v4.4c0,1.3,0.2,2.3,0.6,2.9c0.4,0.6,1,0.9,1.9,0.9
		c0.9,0,1.4-0.3,1.7-0.9c0.3-0.6,0.5-1.5,0.5-2.7v-1.3h3.9v0.8c0,2.3-0.5,4-1.5,5.3c-1,1.2-2.5,1.8-4.7,1.8
		C284.1,239.5,282.8,239.2,281.9,238.6z M288,226.2v-2c0-1.5-0.1-2.6-0.4-3.2c-0.3-0.6-0.9-1-1.8-1c-0.7,0-1.2,0.2-1.5,0.5
		c-0.3,0.3-0.6,0.8-0.7,1.5c-0.1,0.7-0.2,1.7-0.2,3v1.2H288z"/>
	<path class="st3" d="M296.8,234.3v-14.3h-2.3v-2.7h2.3V211h4v6.4h3.5v2.7h-3.5v14c0,0.9,0.1,1.5,0.4,1.9c0.3,0.4,0.8,0.5,1.6,0.5
		c0.5,0,1,0,1.5-0.1v3c-1,0.2-1.9,0.2-2.8,0.2C298.3,239.5,296.8,237.8,296.8,234.3z"/>
</g>
</svg>
